<svg aria-hidden="true" fill="none" focusable="false" height="20" viewBox="0 0 20 20" width="20" class="css-wkr7b6" id="cds-4"><path fill-rule="evenodd" clip-rule="evenodd" d="M15.47 2.888L4.544 13.732l-1.51 3.233 3.214-1.501L17.175 4.608a1.34 1.34 0 00.012-1.732 1.34 1.34 0 00-1.718.012zm2.397-.746a2.34 2.34 0 00-3.065 0l-.012.011L3.715 13.148l-2.75 5.887 5.866-2.739L17.904 5.293l.011-.013a2.34 2.34 0 000-3.09l-.048-.048z" fill="currentColor" data-darkreader-inline-fill="" style="--darkreader-inline-fill:currentColor;"></path><path fill-rule="evenodd" clip-rule="evenodd" d="M16.257 6.194l-2.44-2.43.706-.708 2.44 2.43-.706.708zM6.216 16.233l-2.44-2.44.708-.707 2.44 2.44-.708.707z" fill="currentColor" data-darkreader-inline-fill="" style="--darkreader-inline-fill:currentColor;"></path></svg>